<svg width="96" height="20" viewBox="0 0 96 20" fill="none" xmlns="http://www.w3.org/2000/svg">
<path d="M16.8516 17.1355L18.4 17.4452C18.6065 17.4968 18.7097 17.6516 18.7097 17.9097V19.0194H12.4645V17.9097C12.4645 17.6344 12.6021 17.471 12.8774 17.4194L14.3226 17.1355V10.6065H4.36129V17.1355C5.6 17.3935 6.21935 17.6516 6.21935 17.9097V19.0194H0V17.9097C0 17.6344 0.129032 17.471 0.387097 17.4194L1.85806 17.1355V2.4L0.309677 2.09032C0.103226 2.03871 0 1.88387 0 1.62581V0.541936H6.21935V1.62581C6.21935 1.88387 6.13333 2.03871 5.96129 2.09032C5.77204 2.14194 5.24731 2.24516 4.3871 2.4V8.77419H14.3484V2.4L12.8 2.09032C12.5935 2.03871 12.4903 1.88387 12.4903 1.62581V0.541936H18.7355V1.62581C18.7355 1.90108 18.6065 2.06452 18.3484 2.11613L16.8516 2.4V17.1355Z" fill="#222B45"/>
<path d="M26.593 5.75484C27.5392 5.75484 28.3995 5.90968 29.1737 6.21936C29.9306 6.52903 30.593 6.97634 31.1608 7.56129C31.6941 8.11183 32.107 8.8172 32.3995 9.67742C32.6919 10.5204 32.8382 11.4495 32.8382 12.4645C32.8382 13.4796 32.6919 14.4086 32.3995 15.2516C32.107 16.1118 31.6941 16.8172 31.1608 17.3677C30.593 17.9527 29.9306 18.4 29.1737 18.7097C28.3995 19.0194 27.5392 19.1742 26.593 19.1742C25.6468 19.1742 24.7866 19.0194 24.0124 18.7097C23.2554 18.4 22.593 17.9527 22.0253 17.3677C21.5091 16.8344 21.0876 16.129 20.7608 15.2516C20.4855 14.5118 20.3478 13.5828 20.3478 12.4645C20.3478 11.3462 20.4855 10.4172 20.7608 9.67742C21.0876 8.8 21.5091 8.09462 22.0253 7.56129C22.593 6.97634 23.2554 6.52903 24.0124 6.21936C24.7866 5.90968 25.6468 5.75484 26.593 5.75484ZM26.593 17.4194C27.9177 17.4194 28.8812 16.9892 29.4833 16.129C30.1199 15.2344 30.4382 14.0215 30.4382 12.4903C30.4382 10.9591 30.1199 9.74624 29.4833 8.85161C28.8812 7.9914 27.9177 7.56129 26.593 7.56129C25.922 7.56129 25.3543 7.66452 24.8898 7.87097C24.4425 8.07742 24.0468 8.4043 23.7027 8.85161C23.3758 9.29892 23.1349 9.81505 22.9801 10.4C22.8081 11.0882 22.722 11.7935 22.722 12.5161C22.722 13.2043 22.8081 13.8925 22.9801 14.5806C23.1349 15.1656 23.3758 15.6817 23.7027 16.129C23.9952 16.5247 24.3909 16.8344 24.8898 17.0581C25.4403 17.2989 26.0081 17.4194 26.593 17.4194Z" fill="#222B45"/>
<path d="M39.283 19.2258C38.2851 19.2258 37.4937 18.9333 36.9088 18.3484C36.3583 17.7978 36.083 16.972 36.083 15.871V7.87097H34.5088C34.354 7.87097 34.2335 7.83656 34.1475 7.76774C34.0615 7.69892 34.0185 7.56989 34.0185 7.38064V6.47742L36.1604 6.19355L36.6765 2.14194C36.6765 2.0043 36.7282 1.90108 36.8314 1.83226C36.9174 1.76344 37.0378 1.72903 37.1927 1.72903H38.354V6.21936H42.0959V7.89677H38.354V15.7419C38.354 16.3097 38.483 16.7226 38.7411 16.9806C38.9991 17.2387 39.3518 17.3677 39.7991 17.3677C39.9884 17.3677 40.2034 17.3333 40.4443 17.2645C40.5991 17.2129 40.754 17.1441 40.9088 17.0581C40.9604 17.0237 41.012 16.9892 41.0636 16.9548C41.1152 16.9204 41.1669 16.886 41.2185 16.8516C41.3561 16.7828 41.4421 16.7484 41.4765 16.7484C41.597 16.7484 41.7002 16.8172 41.7862 16.9548L42.4572 18.0387C41.9927 18.4344 41.511 18.7269 41.012 18.9161C40.4443 19.1226 39.8679 19.2258 39.283 19.2258Z" fill="#222B45"/>
<path d="M49.9591 5.75484C50.7161 5.75484 51.43 5.88387 52.101 6.14194C52.7892 6.4 53.3569 6.76989 53.8042 7.25161C54.3204 7.80215 54.6989 8.4129 54.9397 9.08387C55.215 9.85806 55.3526 10.6839 55.3526 11.5613C55.3526 11.957 55.3182 12.1979 55.2494 12.2839C55.1634 12.4043 55.0085 12.4645 54.7849 12.4645H46.1139C46.1139 13.2903 46.2171 14.0129 46.4236 14.6323C46.5956 15.1656 46.8881 15.6645 47.301 16.129C47.6795 16.5591 48.1096 16.8688 48.5913 17.0581C49.1075 17.2645 49.658 17.3677 50.2429 17.3677C50.8623 17.3677 51.3612 17.3075 51.7397 17.1871C52.101 17.0667 52.4623 16.9204 52.8236 16.7484C53.2021 16.5591 53.4601 16.4215 53.5978 16.3355C53.8214 16.1978 53.9935 16.129 54.1139 16.129C54.3032 16.129 54.4494 16.2065 54.5526 16.3613L55.1978 17.2129C54.9569 17.5226 54.6128 17.8151 54.1655 18.0903C53.6494 18.4172 53.2279 18.6323 52.901 18.7355C52.3849 18.9075 51.9204 19.028 51.5075 19.0968C50.9913 19.1828 50.5182 19.2258 50.0881 19.2258C49.1935 19.2258 48.3591 19.071 47.5849 18.7613C46.8451 18.4688 46.1827 18.0129 45.5978 17.3935C45.0472 16.8258 44.6171 16.0946 44.3075 15.2C43.9978 14.3226 43.8429 13.3247 43.8429 12.2065C43.8429 11.3118 43.9892 10.4688 44.2817 9.67742C44.5741 8.86882 44.9784 8.18064 45.4946 7.6129C46.0279 7.02796 46.673 6.57204 47.43 6.24516C48.187 5.91828 49.03 5.75484 49.9591 5.75484ZM50.0107 7.43226C48.8924 7.43226 48.0236 7.75054 47.4042 8.3871C46.7677 9.05806 46.372 9.95269 46.2171 11.071H53.3139C53.3139 10.5376 53.2365 10.0559 53.0816 9.62581C52.8924 9.09247 52.686 8.70538 52.4623 8.46452C52.1698 8.15484 51.8171 7.90538 51.4042 7.71613C51.0085 7.54409 50.5354 7.45806 49.9849 7.45806L50.0107 7.43226Z" fill="#222B45"/>
<path d="M62.7489 17.4194C63.0241 17.471 63.1618 17.6344 63.1618 17.9097V19.0194H57.1231V17.9097C57.1231 17.6344 57.2607 17.471 57.5359 17.4194L58.9811 17.1355V1.88387C58.1897 1.72903 57.708 1.62581 57.5359 1.57419C57.2607 1.52258 57.1231 1.36774 57.1231 1.10968V0H61.3037V17.1097C62.0951 17.2645 62.5768 17.3677 62.7489 17.4194Z" fill="#222B45"/>
<path d="M66.7348 2.99355C66.5972 2.85591 66.4767 2.68387 66.3735 2.47742C66.2875 2.30538 66.2445 2.09893 66.2445 1.85807C66.2445 1.6 66.2875 1.38495 66.3735 1.2129C66.4939 0.972043 66.6144 0.791398 66.7348 0.670968C66.8724 0.533334 67.0445 0.412904 67.2509 0.309678C67.423 0.223657 67.6294 0.180646 67.8703 0.180646C68.1112 0.180646 68.3176 0.223657 68.4896 0.309678C68.6961 0.412904 68.8681 0.533334 69.0058 0.670968C69.1262 0.791398 69.2466 0.972043 69.3671 1.2129C69.4703 1.41935 69.5219 1.63441 69.5219 1.85807C69.5219 2.06452 69.4703 2.27097 69.3671 2.47742C69.2638 2.68387 69.1434 2.85591 69.0058 2.99355C68.8681 3.13118 68.6961 3.25161 68.4896 3.35484C68.3176 3.44086 68.1112 3.48387 67.8703 3.48387C67.6294 3.48387 67.423 3.44086 67.2509 3.35484C67.0445 3.25161 66.8724 3.13118 66.7348 2.99355ZM70.4767 17.4194C70.5972 17.4366 70.6918 17.4968 70.7606 17.6C70.8294 17.686 70.8638 17.7892 70.8638 17.9097V19.0194H64.8509V17.9097C64.8509 17.7892 64.8853 17.686 64.9542 17.6C65.023 17.4968 65.1176 17.4366 65.238 17.4194L66.7348 17.1355V7.81936L65.238 7.53548C65.1176 7.51828 65.023 7.46667 64.9542 7.38064C64.8853 7.27742 64.8509 7.16559 64.8509 7.04516V5.96129H69.0058V17.1355L70.4767 17.4194Z" fill="#222B45"/>
<path d="M78.4117 5.75484C79.1687 5.75484 79.8827 5.88387 80.5536 6.14194C81.2418 6.4 81.8095 6.76989 82.2569 7.25161C82.773 7.80215 83.1515 8.4129 83.3923 9.08387C83.6676 9.85806 83.8052 10.6839 83.8052 11.5613C83.8052 11.957 83.7708 12.1979 83.702 12.2839C83.616 12.4043 83.4612 12.4645 83.2375 12.4645H74.5665C74.5665 13.2903 74.6698 14.0129 74.8762 14.6323C75.0482 15.1656 75.3407 15.6645 75.7536 16.129C76.1321 16.5591 76.5622 16.8688 77.044 17.0581C77.5601 17.2645 78.1106 17.3677 78.6956 17.3677C79.3149 17.3677 79.8138 17.3075 80.1923 17.1871C80.5536 17.0667 80.9149 16.9204 81.2762 16.7484C81.6547 16.5591 81.9128 16.4215 82.0504 16.3355C82.2741 16.1978 82.4461 16.129 82.5665 16.129C82.7558 16.129 82.902 16.2065 83.0052 16.3613L83.6504 17.2129C83.4095 17.5226 83.0655 17.8151 82.6181 18.0903C82.102 18.4172 81.6805 18.6323 81.3536 18.7355C80.8375 18.9075 80.373 19.028 79.9601 19.0968C79.4439 19.1828 78.9708 19.2258 78.5407 19.2258C77.6461 19.2258 76.8117 19.071 76.0375 18.7613C75.2977 18.4688 74.6353 18.0129 74.0504 17.3935C73.4999 16.8258 73.0698 16.0946 72.7601 15.2C72.4504 14.3226 72.2956 13.3247 72.2956 12.2065C72.2956 11.3118 72.4418 10.4688 72.7343 9.67742C73.0267 8.86882 73.431 8.18064 73.9472 7.6129C74.4805 7.02796 75.1257 6.57204 75.8827 6.24516C76.6396 5.91828 77.4827 5.75484 78.4117 5.75484ZM78.4633 7.43226C77.345 7.43226 76.4762 7.75054 75.8568 8.3871C75.2203 9.05806 74.8246 9.95269 74.6698 11.071H81.7665C81.7665 10.5376 81.6891 10.0559 81.5343 9.62581C81.345 9.09247 81.1386 8.70538 80.9149 8.46452C80.6224 8.15484 80.2698 7.90538 79.8568 7.71613C79.4612 7.54409 78.988 7.45806 78.4375 7.45806L78.4633 7.43226Z" fill="#222B45"/>
<path d="M89.6789 8.61936C90.6423 6.67527 91.9671 5.70323 93.6531 5.70323C94.3241 5.70323 94.9176 5.85806 95.4337 6.16774L95.1499 7.89677C95.0982 8.12043 94.9864 8.23226 94.8144 8.23226C94.6939 8.23226 94.4875 8.18925 94.195 8.10323C93.9025 8.0172 93.5499 7.97419 93.137 7.97419C91.623 7.97419 90.5047 8.88602 89.7821 10.7097V17.1613L91.2531 17.4452C91.5111 17.4968 91.6402 17.6602 91.6402 17.9355V19.0194H85.6273V17.9355C85.6273 17.6602 85.7563 17.4968 86.0144 17.4452L87.4853 17.1613V7.84516C86.6595 7.69032 86.1692 7.5871 86.0144 7.53548C85.7563 7.48387 85.6273 7.32043 85.6273 7.04516V5.96129H88.8015C89.0423 5.96129 89.2058 6.0043 89.2918 6.09032C89.3778 6.17634 89.4466 6.33979 89.4982 6.58065L89.6531 8.61936H89.6789Z" fill="#222B45"/>
</svg>
