<svg width="94" height="56" viewBox="0 0 94 56" fill="none" xmlns="http://www.w3.org/2000/svg">
<path fill-rule="evenodd" clip-rule="evenodd" d="M45 25.8333C43.6217 25.8333 42.5 24.7117 42.5 23.3333C42.5 21.955 43.6217 20.8333 45 20.8333C46.3783 20.8333 47.5 21.955 47.5 23.3333C47.5 24.7117 46.3783 25.8333 45 25.8333ZM45 17.5C41.7833 17.5 39.1667 20.1167 39.1667 23.3333C39.1667 26.55 41.7833 29.1667 45 29.1667C48.2167 29.1667 50.8333 26.55 50.8333 23.3333C50.8333 20.1167 48.2167 17.5 45 17.5ZM58.3333 30C58.3333 30.9183 57.5867 31.6667 56.6667 31.6667H33.3333C32.4133 31.6667 31.6667 30.9183 31.6667 30V16.6667C31.6667 15.7483 32.4133 15 33.3333 15H56.6667C57.5867 15 58.3333 15.7483 58.3333 16.6667V30ZM41.6667 9.16667C41.6667 8.70667 42.0417 8.33333 42.5 8.33333H47.5C47.9583 8.33333 48.3333 8.70667 48.3333 9.16667V11.6667H41.6667V9.16667ZM56.6667 11.6667H51.6667V9.16667C51.6667 6.87 49.7983 5 47.5 5H42.5C40.2017 5 38.3333 6.87 38.3333 9.16667V11.6667H33.3333C30.5767 11.6667 28.3333 13.91 28.3333 16.6667V30C28.3333 32.7567 30.5767 35 33.3333 35H56.6667C59.4233 35 61.6667 32.7567 61.6667 30V16.6667C61.6667 13.91 59.4233 11.6667 56.6667 11.6667Z" fill="#8F9BB3"/>
<mask id="mask0_0_264" style="mask-type:alpha" maskUnits="userSpaceOnUse" x="28" y="5" width="34" height="30">
<path fill-rule="evenodd" clip-rule="evenodd" d="M45 25.8333C43.6217 25.8333 42.5 24.7117 42.5 23.3333C42.5 21.955 43.6217 20.8333 45 20.8333C46.3783 20.8333 47.5 21.955 47.5 23.3333C47.5 24.7117 46.3783 25.8333 45 25.8333ZM45 17.5C41.7833 17.5 39.1667 20.1167 39.1667 23.3333C39.1667 26.55 41.7833 29.1667 45 29.1667C48.2167 29.1667 50.8333 26.55 50.8333 23.3333C50.8333 20.1167 48.2167 17.5 45 17.5ZM58.3333 30C58.3333 30.9183 57.5867 31.6667 56.6667 31.6667H33.3333C32.4133 31.6667 31.6667 30.9183 31.6667 30V16.6667C31.6667 15.7483 32.4133 15 33.3333 15H56.6667C57.5867 15 58.3333 15.7483 58.3333 16.6667V30ZM41.6667 9.16667C41.6667 8.70667 42.0417 8.33333 42.5 8.33333H47.5C47.9583 8.33333 48.3333 8.70667 48.3333 9.16667V11.6667H41.6667V9.16667ZM56.6667 11.6667H51.6667V9.16667C51.6667 6.87 49.7983 5 47.5 5H42.5C40.2017 5 38.3333 6.87 38.3333 9.16667V11.6667H33.3333C30.5767 11.6667 28.3333 13.91 28.3333 16.6667V30C28.3333 32.7567 30.5767 35 33.3333 35H56.6667C59.4233 35 61.6667 32.7567 61.6667 30V16.6667C61.6667 13.91 59.4233 11.6667 56.6667 11.6667Z" fill="white"/>
</mask>
<g mask="url(#mask0_0_264)">
</g>
<path d="M5.13281 45.7949C5.13281 45.4121 4.98828 45.1074 4.69922 44.8809C4.41016 44.6543 4.01758 44.541 3.52148 44.541C3.0957 44.541 2.74023 44.6543 2.45508 44.8809C2.16992 45.1035 2.02734 45.3926 2.02734 45.748H0.550781C0.550781 45.2832 0.679688 44.8691 0.9375 44.5059C1.19531 44.1426 1.55273 43.8613 2.00977 43.6621C2.4668 43.459 2.9707 43.3574 3.52148 43.3574C4.49805 43.3574 5.25586 43.5703 5.79492 43.9961C6.33789 44.4219 6.60938 45.0176 6.60938 45.7832C6.60938 46.1699 6.49219 46.5254 6.25781 46.8496C6.02344 47.1738 5.69531 47.4297 5.27344 47.6172C5.75 47.7812 6.11328 48.0312 6.36328 48.3672C6.61719 48.6992 6.74414 49.1133 6.74414 49.6094C6.74414 50.375 6.45117 50.9844 5.86523 51.4375C5.2793 51.8867 4.49805 52.1113 3.52148 52.1113C2.91992 52.1113 2.375 52.0039 1.88672 51.7891C1.40234 51.5742 1.03711 51.2812 0.791016 50.9102C0.548828 50.5391 0.427734 50.1133 0.427734 49.6328H1.9043C1.9043 50 2.05664 50.3105 2.36133 50.5645C2.66602 50.8145 3.05273 50.9395 3.52148 50.9395C4.04492 50.9395 4.46484 50.8164 4.78125 50.5703C5.10156 50.3242 5.26172 50.0039 5.26172 49.6094C5.26172 49.1289 5.12109 48.7812 4.83984 48.5664C4.5625 48.3477 4.1543 48.2383 3.61523 48.2383H2.61328V47.0664H3.5625C4.60938 47.0664 5.13281 46.6426 5.13281 45.7949ZM12.1715 52C12.109 51.8789 12.0543 51.6816 12.0074 51.4082C11.5543 51.8809 10.9996 52.1172 10.3434 52.1172C9.70664 52.1172 9.18711 51.9355 8.78477 51.5723C8.38242 51.209 8.18125 50.7598 8.18125 50.2246C8.18125 49.5488 8.43125 49.0312 8.93125 48.6719C9.43516 48.3086 10.1539 48.127 11.0875 48.127H11.9605V47.7109C11.9605 47.3828 11.8688 47.1211 11.6852 46.9258C11.5016 46.7266 11.2223 46.627 10.8473 46.627C10.523 46.627 10.2574 46.709 10.0504 46.873C9.84336 47.0332 9.73984 47.2383 9.73984 47.4883H8.31602C8.31602 47.1406 8.43125 46.8164 8.66172 46.5156C8.89219 46.2109 9.20469 45.9727 9.59922 45.8008C9.99766 45.6289 10.441 45.543 10.9293 45.543C11.6715 45.543 12.2633 45.7305 12.7047 46.1055C13.1461 46.4766 13.3727 47 13.3844 47.6758V50.5352C13.3844 51.1055 13.4645 51.5605 13.6246 51.9004V52H12.1715ZM10.607 50.9746C10.8883 50.9746 11.152 50.9062 11.398 50.7695C11.648 50.6328 11.8355 50.4492 11.9605 50.2188V49.0234H11.193C10.6656 49.0234 10.2691 49.1152 10.0035 49.2988C9.73789 49.4824 9.60508 49.7422 9.60508 50.0781C9.60508 50.3516 9.69492 50.5703 9.87461 50.7344C10.0582 50.8945 10.3023 50.9746 10.607 50.9746ZM19.4973 46.8086H16.7434V52H15.3254V45.6602H19.4973V46.8086ZM26.2547 48.8945C26.2547 49.875 26.032 50.6582 25.5867 51.2441C25.1414 51.8262 24.5438 52.1172 23.7938 52.1172C23.0984 52.1172 22.5418 51.8887 22.1238 51.4316V54.4375H20.7V45.6602H22.0125L22.0711 46.3047C22.4891 45.7969 23.0574 45.543 23.7762 45.543C24.5496 45.543 25.1551 45.832 25.5926 46.4102C26.034 46.9844 26.2547 47.7832 26.2547 48.8066V48.8945ZM24.8367 48.7715C24.8367 48.1387 24.7098 47.6367 24.4559 47.2656C24.2059 46.8945 23.8465 46.709 23.3777 46.709C22.7957 46.709 22.3777 46.9492 22.1238 47.4297V50.2422C22.3816 50.7344 22.8035 50.9805 23.3895 50.9805C23.8426 50.9805 24.1961 50.7988 24.45 50.4355C24.7078 50.0684 24.8367 49.5137 24.8367 48.7715ZM30.0121 49.9609L31.3012 45.6602H32.8188L30.2992 52.9609C29.9125 54.0273 29.2563 54.5605 28.3305 54.5605C28.1234 54.5605 27.8949 54.5254 27.6449 54.4551V53.3535L27.9145 53.3711C28.2738 53.3711 28.5434 53.3047 28.723 53.1719C28.9066 53.043 29.0512 52.8242 29.1566 52.5156L29.3617 51.9707L27.1352 45.6602H28.6703L30.0121 49.9609ZM38.8438 47.3945C38.8438 47.6758 38.7578 47.9355 38.5859 48.1738C38.418 48.4082 38.1797 48.5957 37.8711 48.7363C38.5977 48.9902 38.9609 49.4805 38.9609 50.207C38.9609 50.7891 38.7246 51.2539 38.252 51.6016C37.7793 51.9453 37.1465 52.1172 36.3535 52.1172C35.8691 52.1172 35.4277 52.0371 35.0293 51.877C34.6309 51.7129 34.3203 51.4824 34.0977 51.1855C33.875 50.8848 33.7637 50.5293 33.7637 50.1191H35.1816C35.1816 50.377 35.2969 50.5938 35.5273 50.7695C35.7578 50.9414 36.0488 51.0273 36.4004 51.0273C36.748 51.0273 37.0234 50.9473 37.2266 50.7871C37.4336 50.623 37.5371 50.4102 37.5371 50.1484C37.5371 49.8398 37.4473 49.6172 37.2676 49.4805C37.0879 49.3438 36.8105 49.2754 36.4355 49.2754H35.416V48.25H36.4707C37.1074 48.2422 37.4258 47.9805 37.4258 47.4648C37.4258 47.207 37.334 47.0059 37.1504 46.8613C36.9668 46.7168 36.7148 46.6445 36.3945 46.6445C36.082 46.6445 35.8184 46.7227 35.6035 46.8789C35.3887 47.0312 35.2812 47.2246 35.2812 47.459H33.8633C33.8633 46.9004 34.0977 46.4434 34.5664 46.0879C35.0352 45.7285 35.6309 45.5488 36.3535 45.5488C37.1387 45.5488 37.75 45.709 38.1875 46.0293C38.625 46.3496 38.8438 46.8047 38.8438 47.3945ZM44.5289 45.6602H45.9469V52H44.5289V47.7695L42.0445 52H40.6266V45.6602H42.0445V49.8906L44.5289 45.6602ZM52.8508 46.791H50.7941V52H49.3703V46.791H47.3371V45.6602H52.8508V46.791ZM55.7352 47.6758H57.1297C57.6492 47.6758 58.1023 47.7656 58.4891 47.9453C58.8758 48.125 59.1688 48.377 59.368 48.7012C59.5711 49.0254 59.6727 49.4023 59.6727 49.832C59.6727 50.4844 59.4422 51.0078 58.9813 51.4023C58.5203 51.7969 57.907 51.9961 57.1414 52H54.3113V45.6602H55.7352V47.6758ZM55.7352 48.8184V50.8633H57.1238C57.4715 50.8633 57.7449 50.7773 57.9441 50.6055C58.1473 50.4297 58.2488 50.1816 58.2488 49.8613C58.2488 49.541 58.1492 49.2891 57.95 49.1055C57.7547 48.918 57.4891 48.8223 57.1531 48.8184H55.7352ZM64.3633 48.918C64.3633 47.8828 64.5664 47.0625 64.9727 46.457C65.3828 45.8477 65.9531 45.543 66.6836 45.543C66.9805 45.543 67.25 45.5977 67.4922 45.707V43H68.9102V45.7305C69.1602 45.6055 69.4531 45.543 69.7891 45.543C70.5156 45.543 71.084 45.8457 71.4941 46.4512C71.9082 47.0527 72.1152 47.916 72.1152 49.041C72.1152 49.9902 71.9082 50.7402 71.4941 51.291C71.0801 51.8418 70.5156 52.1172 69.8008 52.1172C69.4766 52.1172 69.1797 52.0586 68.9102 51.9414V54.4375H67.4922V51.9648C67.2539 52.0664 66.9805 52.1172 66.6719 52.1172C65.9883 52.1172 65.4414 51.8652 65.0312 51.3613C64.625 50.8535 64.4043 50.1562 64.3691 49.2695L64.3633 48.918ZM70.6914 48.918C70.6914 48.207 70.5781 47.6582 70.3516 47.2715C70.125 46.8809 69.8047 46.6855 69.3906 46.6855C69.2148 46.6855 69.0547 46.7109 68.9102 46.7617V50.9219C69.0391 50.9609 69.2031 50.9805 69.4023 50.9805C70.2617 50.9805 70.6914 50.293 70.6914 48.918ZM65.7812 49.041C65.7812 49.6738 65.8867 50.1562 66.0977 50.4883C66.3086 50.8164 66.6211 50.9805 67.0352 50.9805C67.2109 50.9805 67.3633 50.9609 67.4922 50.9219V46.7441C67.3594 46.7051 67.2109 46.6855 67.0469 46.6855C66.6406 46.6855 66.3281 46.875 66.1094 47.2539C65.8906 47.6289 65.7812 48.2246 65.7812 49.041ZM73.4762 48.7715C73.4762 48.1504 73.5992 47.5918 73.8453 47.0957C74.0914 46.5957 74.4371 46.2129 74.8824 45.9473C75.3277 45.6777 75.8395 45.543 76.4176 45.543C77.273 45.543 77.9664 45.8184 78.4977 46.3691C79.0328 46.9199 79.3219 47.6504 79.3648 48.5605L79.3707 48.8945C79.3707 49.5195 79.2496 50.0781 79.0074 50.5703C78.7691 51.0625 78.4254 51.4434 77.9762 51.7129C77.5309 51.9824 77.0152 52.1172 76.4293 52.1172C75.5348 52.1172 74.818 51.8203 74.2789 51.2266C73.7438 50.6289 73.4762 49.834 73.4762 48.8418V48.7715ZM74.9 48.8945C74.9 49.5469 75.0348 50.0586 75.3043 50.4297C75.5738 50.7969 75.9488 50.9805 76.4293 50.9805C76.9098 50.9805 77.2828 50.793 77.5484 50.418C77.818 50.043 77.9527 49.4941 77.9527 48.7715C77.9527 48.1309 77.8141 47.623 77.5367 47.248C77.2633 46.873 76.8902 46.6855 76.4176 46.6855C75.9527 46.6855 75.5836 46.8711 75.3102 47.2422C75.0367 47.6094 74.9 48.1602 74.9 48.8945ZM85.7883 46.791H83.7316V52H82.3078V46.791H80.2746V45.6602H85.7883V46.791ZM86.698 48.7715C86.698 48.1504 86.8211 47.5918 87.0672 47.0957C87.3133 46.5957 87.659 46.2129 88.1043 45.9473C88.5496 45.6777 89.0613 45.543 89.6395 45.543C90.4949 45.543 91.1883 45.8184 91.7195 46.3691C92.2547 46.9199 92.5437 47.6504 92.5867 48.5605L92.5926 48.8945C92.5926 49.5195 92.4715 50.0781 92.2293 50.5703C91.991 51.0625 91.6473 51.4434 91.198 51.7129C90.7527 51.9824 90.2371 52.1172 89.6512 52.1172C88.7566 52.1172 88.0398 51.8203 87.5008 51.2266C86.9656 50.6289 86.698 49.834 86.698 48.8418V48.7715ZM88.1219 48.8945C88.1219 49.5469 88.2566 50.0586 88.5262 50.4297C88.7957 50.7969 89.1707 50.9805 89.6512 50.9805C90.1316 50.9805 90.5047 50.793 90.7703 50.418C91.0398 50.043 91.1746 49.4941 91.1746 48.7715C91.1746 48.1309 91.0359 47.623 90.7586 47.248C90.4852 46.873 90.1121 46.6855 89.6395 46.6855C89.1746 46.6855 88.8055 46.8711 88.532 47.2422C88.2586 47.6094 88.1219 48.1602 88.1219 48.8945Z" fill="#8F9BB3"/>
</svg>
