<svg width="48" height="48" viewBox="0 0 48 48" fill="none" xmlns="http://www.w3.org/2000/svg">
<rect width="48" height="48" rx="4" fill="#3366FF"/>
<path fill-rule="evenodd" clip-rule="evenodd" d="M31 29.4541L29 28.5561V18.5461L31 19.4441V29.4541ZM21 18.5461L23 19.4441V29.4541L21 28.5561V18.5461ZM32.41 17.8861L28.41 16.0881C28.395 16.0811 28.379 16.0801 28.364 16.0741C28.323 16.0581 28.282 16.0471 28.24 16.0361C28.201 16.0261 28.162 16.0171 28.122 16.0131C28.083 16.0081 28.044 16.0071 28.004 16.0071C27.96 16.0071 27.917 16.0081 27.873 16.0131C27.836 16.0171 27.801 16.0261 27.765 16.0351C27.721 16.0461 27.678 16.0581 27.635 16.0741C27.621 16.0801 27.604 16.0811 27.59 16.0881L24 17.7011L20.41 16.0881C20.395 16.0811 20.379 16.0801 20.364 16.0741C20.323 16.0581 20.282 16.0471 20.24 16.0361C20.201 16.0261 20.162 16.0171 20.122 16.0131C20.083 16.0081 20.044 16.0071 20.004 16.0071C19.96 16.0071 19.917 16.0081 19.873 16.0131C19.836 16.0171 19.801 16.0261 19.765 16.0351C19.721 16.0461 19.678 16.0581 19.635 16.0741C19.621 16.0801 19.604 16.0811 19.59 16.0881L15.59 17.8861C15.231 18.0471 15 18.4041 15 18.7981V31.0001C15 31.3391 15.172 31.6551 15.457 31.8401C15.621 31.9461 15.81 32.0001 16 32.0001C16.139 32.0001 16.279 31.9711 16.41 31.9121L20 30.2991L23.59 31.9121C23.605 31.9191 23.621 31.9161 23.637 31.9221C23.754 31.9691 23.875 32.0001 24 32.0001C24.125 32.0001 24.246 31.9691 24.363 31.9221C24.378 31.9161 24.396 31.9191 24.41 31.9121L28 30.2991L31.59 31.9121C31.721 31.9711 31.861 32.0001 32 32.0001C32.19 32.0001 32.379 31.9461 32.543 31.8401C32.828 31.6551 33 31.3391 33 31.0001V18.7981C33 18.4041 32.769 18.0471 32.41 17.8861Z" fill="white"/>
<mask id="mask0_0_302" style="mask-type:alpha" maskUnits="userSpaceOnUse" x="15" y="16" width="18" height="17">
<path fill-rule="evenodd" clip-rule="evenodd" d="M31 29.4541L29 28.5561V18.5461L31 19.4441V29.4541ZM21 18.5461L23 19.4441V29.4541L21 28.5561V18.5461ZM32.41 17.8861L28.41 16.0881C28.395 16.0811 28.379 16.0801 28.364 16.0741C28.323 16.0581 28.282 16.0471 28.24 16.0361C28.201 16.0261 28.162 16.0171 28.122 16.0131C28.083 16.0081 28.044 16.0071 28.004 16.0071C27.96 16.0071 27.917 16.0081 27.873 16.0131C27.836 16.0171 27.801 16.0261 27.765 16.0351C27.721 16.0461 27.678 16.0581 27.635 16.0741C27.621 16.0801 27.604 16.0811 27.59 16.0881L24 17.7011L20.41 16.0881C20.395 16.0811 20.379 16.0801 20.364 16.0741C20.323 16.0581 20.282 16.0471 20.24 16.0361C20.201 16.0261 20.162 16.0171 20.122 16.0131C20.083 16.0081 20.044 16.0071 20.004 16.0071C19.96 16.0071 19.917 16.0081 19.873 16.0131C19.836 16.0171 19.801 16.0261 19.765 16.0351C19.721 16.0461 19.678 16.0581 19.635 16.0741C19.621 16.0801 19.604 16.0811 19.59 16.0881L15.59 17.8861C15.231 18.0471 15 18.4041 15 18.7981V31.0001C15 31.3391 15.172 31.6551 15.457 31.8401C15.621 31.9461 15.81 32.0001 16 32.0001C16.139 32.0001 16.279 31.9711 16.41 31.9121L20 30.2991L23.59 31.9121C23.605 31.9191 23.621 31.9161 23.637 31.9221C23.754 31.9691 23.875 32.0001 24 32.0001C24.125 32.0001 24.246 31.9691 24.363 31.9221C24.378 31.9161 24.396 31.9191 24.41 31.9121L28 30.2991L31.59 31.9121C31.721 31.9711 31.861 32.0001 32 32.0001C32.19 32.0001 32.379 31.9461 32.543 31.8401C32.828 31.6551 33 31.3391 33 31.0001V18.7981C33 18.4041 32.769 18.0471 32.41 17.8861Z" fill="white"/>
</mask>
<g mask="url(#mask0_0_302)">
</g>
</svg>
